<svg width="350" height="350" viewBox="0 0 350 350" fill="none" xmlns="http://www.w3.org/2000/svg">
<g clip-path="url(#clip0)">
<rect width="350" height="350" rx="20" fill="white"/>
<rect y="-1" width="350" height="350" rx="20" fill="#6600EB"/>
<g filter="url(#filter0_d)">
<path d="M106.696 291.056C100.936 291.056 95.464 289.52 90.28 286.448C85.288 283.376 82.792 279.44 82.792 274.64C82.792 272.144 83.176 269.456 83.944 266.576C84.904 263.696 85.768 261.008 86.536 258.512C92.488 240.272 98.056 223.28 103.24 207.536C108.424 191.6 113.608 176.336 118.792 161.744C124.168 146.96 129.736 132.176 135.496 117.392C141.448 102.608 148.072 87.152 155.368 71.024C144.424 73.52 135.784 76.688 129.448 80.528C123.112 84.176 118.888 86 116.776 86C115.816 86 114.376 85.328 112.456 83.984C110.728 82.64 109.192 81.104 107.848 79.376C106.504 77.648 105.832 76.112 105.832 74.768C111.208 72.464 117.448 70.064 124.552 67.568C131.848 65.072 139.72 62.96 148.168 61.232C156.616 59.504 165.064 58.64 173.512 58.64C182.536 58.64 191.752 59.888 201.16 62.384C210.568 64.688 219.208 68.24 227.08 73.04C235.144 77.648 241.576 83.504 246.376 90.608C251.368 97.52 253.864 105.68 253.864 115.088C253.864 125.264 251.56 134 246.952 141.296C242.344 148.592 236.2 154.736 228.52 159.728C221.032 164.72 212.872 168.752 204.04 171.824C195.208 174.896 186.376 177.2 177.544 178.736C168.904 180.272 161.128 181.328 154.216 181.904C147.304 182.48 142.12 182.768 138.664 182.768H136.936C131.56 201.776 126.28 220.784 121.096 239.792C115.912 258.608 111.112 275.696 106.696 291.056ZM139.528 173.84C150.28 173.072 161.032 171.248 171.784 168.368C182.536 165.488 192.232 161.552 200.872 156.56C209.704 151.376 216.712 144.944 221.896 137.264C227.272 129.584 229.96 120.656 229.96 110.48C229.96 100.88 227.368 93.104 222.184 87.152C217.192 81.2 210.664 76.688 202.6 73.616C194.728 70.544 186.376 68.912 177.544 68.72C170.632 82.16 164.008 98.096 157.672 116.528C151.336 134.768 145.288 153.872 139.528 173.84Z" fill="white"/>
</g>
<path d="M538.329 237.476C539.041 243.499 539.531 249.614 539.789 255.806C539.513 255.817 539.298 256.049 539.309 256.325C539.436 259.53 539.5 262.756 539.5 266C539.5 269.244 539.436 272.47 539.309 275.675C539.298 275.951 539.513 276.183 539.789 276.194C539.531 282.386 539.041 288.501 538.329 294.524C538.055 294.491 537.806 294.687 537.773 294.961C536.993 301.438 535.955 307.809 534.674 314.056C534.618 314.326 534.792 314.59 535.063 314.646C533.804 320.716 532.315 326.669 530.608 332.489C530.343 332.411 530.066 332.563 529.987 332.827C528.137 339.087 526.034 345.191 523.694 351.121C523.593 351.378 523.719 351.668 523.975 351.77C521.686 357.534 519.172 363.133 516.45 368.548C516.203 368.424 515.903 368.523 515.778 368.769C512.832 374.594 509.642 380.205 506.227 385.579C506.08 385.812 506.148 386.121 506.381 386.269C503.041 391.495 499.489 396.495 495.741 401.25C495.524 401.079 495.21 401.116 495.039 401.332C490.982 406.449 486.696 411.278 482.204 415.792C482.009 415.988 482.01 416.304 482.205 416.499C477.82 420.879 473.238 424.962 468.48 428.723C468.31 428.507 467.996 428.469 467.779 428.639C462.661 432.657 457.341 436.302 451.842 439.544C451.605 439.684 451.526 439.99 451.665 440.228C446.34 443.342 440.849 446.08 435.213 448.416C435.108 448.161 434.816 448.039 434.561 448.143C428.595 450.589 422.468 452.581 416.205 454.09C415.937 454.154 415.772 454.424 415.836 454.692C409.902 456.096 403.846 457.067 397.691 457.578C397.669 457.303 397.428 457.098 397.153 457.12C393.961 457.372 390.743 457.5 387.5 457.5C384.257 457.5 381.039 457.372 377.847 457.12C377.572 457.098 377.331 457.303 377.309 457.578C371.154 457.067 365.098 456.096 359.164 454.692C359.228 454.424 359.063 454.154 358.795 454.09C352.532 452.581 346.405 450.589 340.439 448.143C340.184 448.039 339.892 448.161 339.787 448.416C334.151 446.08 328.66 443.342 323.335 440.228C323.474 439.99 323.395 439.684 323.158 439.544C317.659 436.302 312.339 432.657 307.221 428.639C307.004 428.469 306.69 428.507 306.52 428.723C301.762 424.962 297.18 420.879 292.795 416.499C292.99 416.304 292.991 415.988 292.796 415.792C288.304 411.278 284.018 406.449 279.961 401.332C279.79 401.116 279.476 401.079 279.259 401.25C275.511 396.495 271.959 391.495 268.619 386.269C268.852 386.121 268.92 385.812 268.773 385.579C265.358 380.205 262.168 374.594 259.222 368.769C259.097 368.523 258.797 368.424 258.55 368.548C255.828 363.133 253.314 357.534 251.025 351.77C251.281 351.668 251.407 351.378 251.306 351.121C248.966 345.191 246.863 339.087 245.013 332.827C244.934 332.563 244.657 332.411 244.392 332.489C242.685 326.669 241.196 320.716 239.937 314.646C240.208 314.59 240.382 314.326 240.326 314.056C239.045 307.809 238.007 301.438 237.227 294.961C237.194 294.687 236.945 294.491 236.671 294.524C235.959 288.501 235.469 282.386 235.211 276.194C235.487 276.183 235.702 275.951 235.691 275.675C235.564 272.47 235.5 269.244 235.5 266C235.5 262.756 235.564 259.53 235.691 256.325C235.702 256.049 235.487 255.817 235.211 255.806C235.469 249.614 235.959 243.499 236.671 237.476C236.945 237.509 237.194 237.313 237.227 237.039C238.007 230.562 239.045 224.191 240.326 217.944C240.382 217.674 240.208 217.41 239.937 217.354C241.196 211.284 242.685 205.331 244.392 199.511C244.657 199.589 244.934 199.437 245.013 199.173C246.863 192.913 248.966 186.809 251.306 180.879C251.407 180.622 251.281 180.332 251.025 180.231C253.314 174.466 255.828 168.868 258.55 163.452C258.797 163.576 259.097 163.477 259.222 163.231C262.168 157.406 265.358 151.795 268.773 146.421C268.92 146.188 268.852 145.879 268.619 145.731C271.959 140.505 275.511 135.505 279.259 130.75C279.476 130.921 279.79 130.884 279.961 130.668C284.018 125.551 288.304 120.722 292.796 116.208C292.991 116.012 292.99 115.696 292.795 115.501C297.18 111.121 301.762 107.038 306.52 103.277C306.69 103.493 307.004 103.531 307.221 103.361C312.339 99.3426 317.659 95.6976 323.158 92.4557C323.395 92.3156 323.474 92.0096 323.335 91.7718C328.66 88.6581 334.151 85.92 339.787 83.5844C339.892 83.8393 340.184 83.9612 340.439 83.8565C346.405 81.4114 352.532 79.4187 358.795 77.9104C359.063 77.8459 359.228 77.5764 359.164 77.3083C365.098 75.9044 371.154 74.9332 377.309 74.4219C377.331 74.6967 377.572 74.9017 377.847 74.88C381.039 74.6279 384.257 74.5 387.5 74.5C390.743 74.5 393.961 74.6279 397.153 74.88C397.428 74.9017 397.669 74.6967 397.691 74.4219C403.846 74.9332 409.902 75.9044 415.836 77.3082C415.772 77.5764 415.937 77.8459 416.205 77.9104C422.468 79.4187 428.595 81.4114 434.561 83.8565C434.816 83.9612 435.108 83.8393 435.213 83.5844C440.849 85.92 446.34 88.6581 451.665 91.7718C451.526 92.0096 451.605 92.3156 451.842 92.4557C457.341 95.6976 462.661 99.3426 467.779 103.361C467.996 103.531 468.31 103.493 468.48 103.277C473.238 107.038 477.82 111.121 482.205 115.501C482.01 115.696 482.009 116.012 482.204 116.208C486.696 120.722 490.982 125.551 495.039 130.668C495.21 130.884 495.524 130.921 495.741 130.75C499.489 135.505 503.041 140.505 506.381 145.731C506.148 145.879 506.08 146.188 506.228 146.421C509.642 151.795 512.832 157.406 515.778 163.231C515.903 163.477 516.203 163.576 516.45 163.452C519.172 168.867 521.686 174.466 523.975 180.23C523.719 180.332 523.593 180.622 523.694 180.879C526.034 186.809 528.137 192.913 529.987 199.173C530.066 199.437 530.343 199.589 530.608 199.511C532.315 205.331 533.804 211.284 535.063 217.354C534.792 217.41 534.618 217.674 534.674 217.944C535.955 224.191 536.993 230.562 537.773 237.039C537.806 237.313 538.055 237.509 538.329 237.476Z" stroke="white" stroke-opacity="0.5" stroke-linecap="round" stroke-dasharray="0 20"/>
<path d="M135.788 238.102C135.899 238.355 136.193 238.47 136.446 238.359C137.687 241.205 138.853 244.057 139.945 246.911C139.687 247.01 139.558 247.298 139.656 247.556C142.115 254.034 144.192 260.523 145.896 266.978C145.967 267.245 146.24 267.404 146.507 267.334C148.178 273.733 149.483 280.099 150.43 286.387C150.157 286.428 149.969 286.682 150.009 286.954C151.027 293.839 151.614 300.628 151.783 307.263C151.79 307.538 152.019 307.756 152.295 307.75C152.443 314.401 152.171 320.897 151.491 327.179C151.216 327.149 150.97 327.346 150.939 327.62C150.159 334.581 148.875 341.273 147.102 347.617C147.028 347.882 147.183 348.158 147.448 348.232C145.621 354.665 143.29 360.74 140.472 366.373C140.226 366.249 139.926 366.347 139.801 366.593C136.648 372.814 132.894 378.482 128.565 383.483C128.385 383.692 128.407 384.006 128.615 384.187C124.292 389.116 119.404 393.393 113.972 396.907C113.823 396.676 113.515 396.608 113.282 396.756C110.445 398.562 107.461 400.159 104.331 401.533C104.079 401.644 103.964 401.938 104.074 402.19C101.222 403.417 98.317 404.432 95.3673 405.242C95.2954 404.976 95.0221 404.818 94.7559 404.889C88.2315 406.628 81.4901 407.362 74.6415 407.157C74.3661 407.148 74.136 407.365 74.1268 407.64C67.7913 407.408 61.37 406.381 54.9494 404.612C55.0233 404.346 54.8685 404.071 54.6031 403.996C48.272 402.215 41.9402 399.709 35.6921 396.528C35.4463 396.403 35.1457 396.5 35.0201 396.745C29.4168 393.862 23.8847 390.44 18.4838 386.516C18.6463 386.293 18.5978 385.981 18.3752 385.818C13.0407 381.913 7.83514 377.515 2.81743 372.661C2.61916 372.469 2.30302 372.474 2.11096 372.672C-2.4317 368.25 -6.81826 363.455 -11.0053 358.313C-10.7912 358.139 -10.7583 357.825 -10.9319 357.61C-15.1228 352.435 -19.1115 346.909 -22.8539 341.062C-23.0027 340.83 -23.3115 340.762 -23.544 340.91C-26.9652 335.534 -30.1785 329.888 -33.1502 323.994C-32.9037 323.87 -32.8041 323.57 -32.9277 323.323C-34.4398 320.305 -35.8886 317.222 -37.2693 314.077C-37.3802 313.825 -37.6748 313.71 -37.9275 313.82C-39.1685 310.975 -40.3346 308.123 -41.4266 305.268C-41.1688 305.17 -41.0393 304.881 -41.1372 304.623C-43.5967 298.146 -45.6738 291.657 -47.3775 285.202C-47.4479 284.935 -47.7211 284.776 -47.9879 284.846C-49.6589 278.446 -50.9639 272.081 -51.9115 265.793C-51.6387 265.752 -51.4503 265.498 -51.4907 265.225C-52.5083 258.34 -53.0957 251.552 -53.2645 244.917C-53.2715 244.641 -53.5005 244.423 -53.7762 244.43C-53.9245 237.779 -53.6527 231.283 -52.972 225C-52.6979 225.031 -52.451 224.833 -52.4203 224.559C-51.6409 217.599 -50.3566 210.907 -48.5838 204.563C-48.5096 204.297 -48.6644 204.022 -48.9298 203.947C-47.1021 197.514 -44.7713 191.44 -41.9534 185.807C-41.7074 185.931 -41.4072 185.832 -41.2826 185.587C-38.129 179.366 -34.3758 173.698 -30.0467 168.696C-29.8663 168.488 -29.8886 168.173 -30.0962 167.992C-25.7731 163.064 -20.8849 158.787 -15.4531 155.272C-15.3044 155.504 -14.9962 155.572 -14.7638 155.424C-11.9268 153.618 -8.94206 152.02 -5.8126 150.646C-5.56032 150.535 -5.44528 150.242 -5.55502 149.989C-2.70388 148.763 0.201596 147.748 3.1513 146.938C3.22318 147.204 3.49651 147.361 3.76273 147.29C10.2871 145.551 17.0285 144.818 23.8771 145.023C24.1525 145.031 24.3826 144.815 24.3918 144.54C30.7273 144.771 37.1486 145.798 43.5692 147.568C43.4953 147.833 43.6501 148.108 43.9155 148.183C50.2466 149.964 56.5783 152.471 62.8265 155.652C63.0723 155.777 63.3729 155.679 63.4985 155.434C69.1017 158.317 74.6339 161.739 80.0348 165.663C79.8723 165.886 79.9208 166.198 80.1434 166.361C85.4779 170.266 90.6835 174.664 95.7012 179.518C95.8995 179.71 96.2156 179.705 96.4076 179.507C100.95 183.93 105.337 188.725 109.524 193.866C109.31 194.04 109.277 194.355 109.451 194.569C113.641 199.745 117.63 205.27 121.373 211.118C121.521 211.35 121.83 211.418 122.063 211.27C125.484 216.646 128.697 222.292 131.669 228.186C131.422 228.309 131.323 228.61 131.446 228.856C132.958 231.874 134.407 234.957 135.788 238.102Z" stroke="white" stroke-opacity="0.3" stroke-linecap="round" stroke-dasharray="0 20"/>
<path d="M550.658 -83.5199C551.231 -77.2553 551.624 -70.9215 551.831 -64.5271C551.555 -64.5184 551.338 -64.2879 551.347 -64.012C551.449 -60.6906 551.5 -57.3529 551.5 -54C551.5 -50.6471 551.449 -47.3093 551.347 -43.9879C551.338 -43.712 551.555 -43.4815 551.831 -43.4728C551.624 -37.0784 551.231 -30.7446 550.658 -24.48C550.383 -24.5054 550.139 -24.3033 550.114 -24.0285C549.491 -17.3347 548.661 -10.7203 547.634 -4.19583C547.591 -3.92319 547.777 -3.66736 548.049 -3.62421C547.043 2.69656 545.852 8.93289 544.483 15.0754C544.213 15.0152 543.946 15.1844 543.886 15.4537C542.412 22.0125 540.735 28.4634 538.864 34.7951C538.785 35.0598 538.937 35.3377 539.201 35.4162C537.377 41.551 535.37 47.5738 533.189 53.474C532.931 53.3781 532.643 53.5099 532.547 53.7687C530.203 60.0763 527.66 66.2428 524.928 72.2552C524.814 72.5066 524.925 72.8028 525.176 72.9171C522.518 78.7379 519.684 84.4142 516.681 89.9341C516.439 89.802 516.135 89.8911 516.003 90.1333C512.777 96.037 509.358 101.76 505.759 107.289C505.608 107.521 505.674 107.83 505.905 107.981C502.399 113.342 498.723 118.52 494.887 123.502C494.669 123.333 494.355 123.373 494.186 123.592C490.069 128.915 485.769 134.011 481.299 138.865C481.112 139.068 481.125 139.384 481.328 139.571C476.981 144.269 472.475 148.739 467.82 152.966C467.635 152.761 467.319 152.746 467.114 152.931C462.13 157.436 456.977 161.662 451.669 165.59C451.447 165.755 451.4 166.067 451.564 166.289C446.421 170.076 441.133 173.586 435.713 176.802C435.573 176.564 435.267 176.485 435.029 176.626C429.263 180.026 423.349 183.093 417.303 185.807C417.051 185.92 416.939 186.215 417.051 186.467C411.244 189.054 405.315 191.317 399.278 193.238C399.195 192.975 398.914 192.83 398.651 192.912C392.311 194.91 385.851 196.53 379.289 197.752C379.018 197.802 378.839 198.063 378.889 198.334C372.683 199.47 366.386 200.252 360.011 200.662C359.994 200.387 359.757 200.178 359.481 200.195C356.174 200.397 352.847 200.5 349.5 200.5C346.153 200.5 342.826 200.397 339.519 200.195C339.243 200.178 339.006 200.387 338.989 200.662C332.614 200.252 326.317 199.47 320.111 198.334C320.161 198.063 319.982 197.802 319.711 197.752C313.149 196.53 306.689 194.91 300.349 192.912C300.086 192.83 299.805 192.975 299.722 193.238C293.685 191.317 287.756 189.054 281.949 186.467C282.061 186.215 281.949 185.92 281.697 185.807C275.651 183.093 269.737 180.026 263.971 176.626C263.733 176.485 263.427 176.564 263.287 176.802C257.867 173.586 252.579 170.076 247.436 166.289C247.6 166.067 247.553 165.755 247.331 165.59C242.023 161.662 236.87 157.436 231.886 152.931C231.681 152.746 231.365 152.761 231.18 152.966C226.525 148.739 222.019 144.269 217.672 139.571C217.875 139.384 217.888 139.068 217.701 138.865C213.231 134.011 208.931 128.915 204.814 123.592C204.645 123.373 204.331 123.333 204.113 123.502C200.277 118.52 196.601 113.342 193.095 107.981C193.326 107.83 193.392 107.521 193.241 107.289C189.642 101.76 186.223 96.037 182.997 90.1333C182.865 89.8911 182.561 89.802 182.319 89.9341C179.316 84.4141 176.482 78.7379 173.824 72.9171C174.075 72.8027 174.186 72.5065 174.072 72.2552C171.34 66.2427 168.797 60.0763 166.453 53.7686C166.357 53.5099 166.069 53.3781 165.811 53.4739C163.63 47.5737 161.623 41.551 159.799 35.4161C160.063 35.3377 160.215 35.0597 160.136 34.795C158.265 28.4633 156.588 22.0124 155.114 15.4537C155.054 15.1844 154.787 15.015 154.517 15.0753C153.148 8.93283 151.957 2.6965 150.951 -3.62427C151.223 -3.66739 151.409 -3.92325 151.366 -4.19589C150.339 -10.7204 149.509 -17.3347 148.886 -24.0286C148.861 -24.3034 148.617 -24.5055 148.342 -24.4801C147.769 -30.7447 147.376 -37.0784 147.169 -43.4729C147.445 -43.4816 147.662 -43.7121 147.653 -43.988C147.551 -47.3094 147.5 -50.6471 147.5 -54C147.5 -57.3529 147.551 -60.6907 147.653 -64.0121C147.662 -64.288 147.445 -64.5185 147.169 -64.5272C147.376 -70.9216 147.769 -77.2554 148.342 -83.52C148.617 -83.4946 148.861 -83.6967 148.886 -83.9715C149.509 -90.6653 150.339 -97.2797 151.366 -103.804C151.409 -104.077 151.223 -104.333 150.951 -104.376C151.957 -110.697 153.148 -116.933 154.517 -123.075C154.787 -123.015 155.054 -123.184 155.114 -123.454C156.588 -130.012 158.265 -136.463 160.136 -142.795C160.215 -143.06 160.063 -143.338 159.799 -143.416C161.623 -149.551 163.63 -155.574 165.811 -161.474C166.069 -161.378 166.357 -161.51 166.453 -161.769C168.797 -168.076 171.34 -174.243 174.072 -180.255C174.186 -180.507 174.075 -180.803 173.824 -180.917C176.482 -186.738 179.316 -192.414 182.319 -197.934C182.561 -197.802 182.865 -197.891 182.997 -198.133C186.223 -204.037 189.642 -209.76 193.241 -215.289C193.392 -215.521 193.326 -215.83 193.095 -215.981C196.601 -221.342 200.277 -226.52 204.113 -231.502C204.331 -231.333 204.645 -231.373 204.814 -231.592C208.931 -236.915 213.231 -242.011 217.701 -246.865C217.888 -247.068 217.875 -247.384 217.672 -247.571C222.019 -252.269 226.525 -256.739 231.18 -260.966C231.365 -260.761 231.681 -260.746 231.886 -260.931C236.87 -265.436 242.023 -269.662 247.331 -273.59C247.553 -273.755 247.6 -274.067 247.436 -274.289C252.579 -278.076 257.867 -281.586 263.287 -284.802C263.427 -284.564 263.733 -284.485 263.971 -284.626C269.737 -288.026 275.651 -291.093 281.697 -293.807C281.949 -293.92 282.061 -294.215 281.949 -294.467C287.756 -297.054 293.685 -299.317 299.722 -301.238C299.805 -300.975 300.086 -300.83 300.349 -300.912C306.689 -302.91 313.149 -304.53 319.711 -305.752C319.982 -305.802 320.161 -306.063 320.111 -306.334C326.317 -307.47 332.614 -308.252 338.989 -308.662C339.006 -308.387 339.243 -308.178 339.519 -308.195C342.826 -308.397 346.153 -308.5 349.5 -308.5C352.847 -308.5 356.174 -308.397 359.481 -308.195C359.757 -308.178 359.994 -308.387 360.011 -308.662C366.386 -308.252 372.683 -307.47 378.889 -306.334C378.839 -306.063 379.018 -305.802 379.289 -305.752C385.851 -304.53 392.311 -302.91 398.651 -300.912C398.914 -300.83 399.195 -300.975 399.278 -301.238C405.315 -299.317 411.244 -297.054 417.051 -294.467C416.939 -294.215 417.051 -293.92 417.303 -293.807C423.349 -291.093 429.263 -288.026 435.029 -284.626C435.267 -284.485 435.573 -284.564 435.713 -284.802C441.133 -281.586 446.421 -278.076 451.564 -274.289C451.4 -274.067 451.447 -273.755 451.669 -273.59C456.977 -269.662 462.13 -265.436 467.114 -260.931C467.319 -260.746 467.635 -260.761 467.82 -260.966C472.475 -256.739 476.981 -252.269 481.328 -247.571C481.125 -247.384 481.112 -247.068 481.299 -246.865C485.769 -242.011 490.069 -236.915 494.186 -231.592C494.355 -231.373 494.669 -231.333 494.887 -231.502C498.723 -226.52 502.399 -221.342 505.905 -215.981C505.674 -215.83 505.608 -215.521 505.759 -215.289C509.358 -209.76 512.777 -204.037 516.003 -198.133C516.135 -197.891 516.439 -197.802 516.681 -197.934C519.684 -192.414 522.518 -186.738 525.176 -180.917C524.925 -180.803 524.814 -180.506 524.928 -180.255C527.66 -174.243 530.203 -168.076 532.547 -161.769C532.643 -161.51 532.931 -161.378 533.189 -161.474C535.37 -155.574 537.377 -149.551 539.201 -143.416C538.937 -143.338 538.785 -143.06 538.864 -142.795C540.735 -136.463 542.412 -130.012 543.886 -123.454C543.946 -123.184 544.213 -123.015 544.483 -123.075C545.852 -116.933 547.043 -110.697 548.049 -104.376C547.777 -104.333 547.591 -104.077 547.634 -103.804C548.661 -97.2796 549.491 -90.6653 550.114 -83.9714C550.139 -83.6966 550.383 -83.4946 550.658 -83.5199Z" stroke="white" stroke-opacity="0.5" stroke-linecap="round" stroke-dasharray="0 20"/>
<rect x="310" y="64" width="40" height="48" fill="#6600EB"/>
<path opacity="0.8" d="M338.388 79.2646L326.898 108.943C326.055 111.032 324.686 111.364 323.029 110.049L314.283 101.124L308.746 104.958C308.13 105.402 307.616 105.773 306.593 105.608L308.944 95.6114L330.037 81.9605C330.953 81.3775 330.043 80.8233 328.858 81.3645L303.789 92.0088L294.491 87.3574C292.468 86.3479 292.667 84.8764 295.445 84.2766L336.143 75.7166C338.024 75.3389 339.405 76.6497 338.388 79.2661L338.388 79.2646Z" fill="#A775F5"/>
</g>
<defs>
<filter id="filter0_d" x="32.792" y="8.64014" width="271.072" height="332.416" filterUnits="userSpaceOnUse" color-interpolation-filters="sRGB">
<feFlood flood-opacity="0" result="BackgroundImageFix"/>
<feColorMatrix in="SourceAlpha" type="matrix" values="0 0 0 0 0 0 0 0 0 0 0 0 0 0 0 0 0 0 127 0"/>
<feOffset/>
<feGaussianBlur stdDeviation="25"/>
<feColorMatrix type="matrix" values="0 0 0 0 1 0 0 0 0 0.0492029 0 0 0 0 0.562633 0 0 0 1 0"/>
<feBlend mode="normal" in2="BackgroundImageFix" result="effect1_dropShadow"/>
<feBlend mode="normal" in="SourceGraphic" in2="effect1_dropShadow" result="shape"/>
</filter>
<clipPath id="clip0">
<rect width="350" height="350" rx="20" fill="white"/>
</clipPath>
</defs>
</svg>
